<svg width="1442" height="412" viewBox="0 0 1442 412" fill="none" xmlns="http://www.w3.org/2000/svg">
<path d="M1 369.916L10.232 355.143C12.5206 351.48 18.0632 352.246 19.2722 356.392L20.114 359.279C21.3194 363.413 26.8377 364.191 29.1396 360.552L32.8147 354.743C33.1448 354.221 33.3754 353.643 33.4948 353.037L43.6085 301.72C44.2027 298.705 48.278 298.152 49.6538 300.9L50.5627 302.716C51.6631 304.914 54.9297 304.438 55.3574 302.018V302.018C55.8138 299.435 59.4023 299.138 60.2763 301.611L62.8216 308.814C63.0081 309.342 63.2902 309.831 63.6538 310.257L67.4525 314.705C68.2174 315.6 69.336 316.116 70.5137 316.116V316.116C72.1411 316.116 73.6085 315.136 74.232 313.633L80.3957 298.774C81.0492 297.198 83.108 296.817 84.2821 298.055V298.055C85.4702 299.307 87.557 298.899 88.1861 297.291L89.3309 294.367C90.6165 291.082 95.0698 290.611 97.015 293.553L103.946 304.036C104.316 304.595 104.569 305.222 104.692 305.881L108.206 324.809C108.852 328.289 112.81 330.014 115.8 328.118L115.969 328.011C118.806 326.211 122.575 327.666 123.467 330.905L124.887 336.057C125.648 338.82 129.227 339.543 131.001 337.292V337.292C132.035 335.981 133.853 335.584 135.34 336.345L138.855 338.146C140.13 338.799 141.063 339.968 141.419 341.355L142.199 344.401C143.037 347.671 146.808 349.188 149.677 347.409L150.607 346.833C151.796 346.096 152.622 344.895 152.884 343.521L160.226 305.061C160.801 302.051 164.899 301.547 166.185 304.329L166.519 305.05C167.427 307.013 170.15 307.185 171.298 305.352V305.352C172.488 303.452 175.336 303.724 176.145 305.815L181.543 319.774C183.203 324.067 189.292 324.026 190.894 319.711L195.723 306.706C196.158 305.533 197.017 304.567 198.13 303.996L202.524 301.746C203.769 301.108 204.69 299.976 205.063 298.627L208.744 285.307C209.347 283.123 212.006 282.294 213.744 283.748V283.748C215.387 285.122 217.894 284.466 218.654 282.464L224.811 266.242C225.867 263.461 229.546 262.882 231.405 265.204V265.204C233.055 267.264 236.243 267.087 237.654 264.856L240.42 260.484C242.437 257.295 247.124 257.404 248.99 260.683L251.439 264.983C251.768 265.561 252.232 266.05 252.793 266.408V266.408C255.122 267.895 258.226 266.693 258.946 264.024L263.386 247.561C263.497 247.151 263.659 246.758 263.869 246.389L268.336 238.543C268.513 238.232 268.656 237.904 268.762 237.563L273.779 221.543C274.026 220.753 274.466 220.037 275.058 219.459L280.042 214.596C281.865 212.817 284.734 212.693 286.704 214.307L287.237 214.744C287.928 215.311 288.455 216.053 288.763 216.892L291.713 224.954C292.263 226.456 294.13 226.966 295.367 225.952V225.952C296.601 224.941 298.463 225.446 299.017 226.942L304.079 240.619C304.324 241.281 304.706 241.884 305.201 242.387L309.011 246.267C311.906 249.215 316.925 247.578 317.525 243.489L320.75 221.521C321.202 218.44 324.33 216.517 327.283 217.505L331.999 219.083C334.199 219.819 336.617 218.945 337.838 216.971L342.88 208.818C344.625 205.997 348.582 205.625 350.821 208.072L353.2 210.673C353.682 211.199 354.046 211.822 354.266 212.501L356.887 220.558C357.426 222.212 359.411 222.875 360.835 221.874V221.874C362.031 221.034 363.683 221.35 364.485 222.571L366.588 225.771C367.512 227.178 369.083 228.025 370.767 228.025H371.41C373.853 228.025 375.938 226.26 376.341 223.851L380.447 199.332C380.607 198.38 381.038 197.495 381.69 196.783L386.779 191.221C387.726 190.186 389.064 189.597 390.467 189.597H392.662C394.331 189.597 395.891 190.43 396.819 191.818L404.422 203.194V203.194C406.585 206.993 412.354 205.731 412.734 201.377L415.636 168.148C415.862 165.565 418.025 163.583 420.617 163.583H421.739C423.48 163.583 425.047 164.638 425.703 166.251V166.251C427.15 169.807 432.186 169.807 433.632 166.251V166.251C434.288 164.638 435.855 163.583 437.596 163.583H438.54C439.963 163.583 441.318 164.189 442.266 165.249L449.539 173.378C450.945 174.95 453.188 175.47 455.143 174.678L462.639 171.639C464.129 171.036 465.237 169.752 465.618 168.191L468.12 157.939C468.666 155.699 470.672 154.124 472.977 154.124H475.523C477.161 154.124 478.696 154.927 479.631 156.273L484.173 162.82C484.523 163.325 484.777 163.889 484.923 164.485L486.297 170.116C487.041 173.167 490.382 174.785 493.237 173.476L497.444 171.549C498.66 170.992 499.603 169.97 500.06 168.713L509.773 142.011C510.484 140.055 512.344 138.752 514.426 138.752V138.752C516.573 138.752 518.475 137.369 519.136 135.327L523.359 122.292C523.506 121.838 523.718 121.407 523.987 121.013L525.329 119.048C527.363 116.072 531.782 116.16 533.695 119.215L534.588 120.64C534.987 121.277 535.524 121.815 536.159 122.216L540.592 125.011C541.349 125.488 541.932 126.196 542.256 127.03V127.03C543.709 130.772 549.092 130.502 550.163 126.634L552.349 118.741C552.681 117.542 553.449 116.51 554.501 115.846L557.897 113.705C558.887 113.081 559.627 112.129 559.987 111.016L563.494 100.191C564.223 97.9394 566.953 97.0766 568.844 98.4998V98.4998C570.531 99.7697 572.953 99.2371 573.951 97.3768L580.106 85.9122C581.491 83.331 585.126 83.1521 586.758 85.5848L586.858 85.734C587.912 87.3048 589.984 87.8234 591.654 86.9347L591.861 86.8242C593.267 86.0759 595.004 86.4054 596.038 87.6165V87.6165C597.833 89.7173 601.251 88.9101 601.916 86.2286L603.683 79.1006C604.342 76.445 607.012 74.8117 609.676 75.4356L610.733 75.6829C611.826 75.939 612.766 76.632 613.335 77.6003V77.6003C615.133 80.6632 619.71 80.1491 620.784 76.7635L624.149 66.1529C624.42 65.3005 624.914 64.5362 625.58 63.9397L632.319 57.9057C632.851 57.4288 633.541 57.1651 634.256 57.1651V57.1651C635.66 57.1651 636.863 56.1612 637.114 54.7801L639.691 40.5932C640.47 36.3079 645.975 34.9979 648.6 38.4731L651.423 42.209C652.558 43.7118 654.554 44.2767 656.309 43.5919V43.5919C658.122 42.8841 660.184 43.5131 661.294 45.1124L665.616 51.3409C665.848 51.6752 666.038 52.0366 666.182 52.417L669.411 60.9227C669.796 61.9373 670.501 62.7991 671.419 63.3779L672.096 63.8048C674.524 65.336 677.741 64.5121 679.134 62.002L682.824 55.355C683.028 54.9867 683.279 54.6456 683.569 54.34L686.702 51.0377C687.646 50.0428 688.958 49.4794 690.329 49.4794H690.83C693.13 49.4794 695.132 47.9114 695.684 45.6793L699.369 30.773C699.862 28.7803 701.994 27.6751 703.907 28.4215V28.4215C705.35 28.9848 706.991 28.5012 707.899 27.2455L708.299 26.6914C710.049 24.2702 713.677 24.3381 715.335 26.8229L721.031 35.3598C722.82 38.0418 726.643 38.354 728.844 35.9978L738.989 25.137C740.578 23.4357 743.364 23.7781 744.494 25.8136V25.8136C746.012 28.5477 750.097 27.9906 750.828 24.9499L752.772 16.8569C753.116 15.4244 754.074 14.2166 755.391 13.5558L756.882 12.8075C758.938 11.7757 761.433 12.2799 762.927 14.0292L764.923 16.3668C765.26 16.7617 765.534 17.2067 765.734 17.6858L776.746 44.0348C776.944 44.5086 777.068 45.01 777.113 45.5214L782.547 106.837C782.582 107.223 782.661 107.604 782.783 107.972L788.139 124.098C788.774 126.01 791.312 126.391 792.48 124.75V124.75C793.523 123.284 795.735 123.396 796.625 124.959L799.776 130.492C800.417 131.619 801.471 132.453 802.716 132.817L812.094 135.562C813.664 136.022 815.316 135.15 815.822 133.594V133.594C816.752 130.736 820.828 130.834 821.62 133.732L822.507 136.98C822.815 138.106 823.595 139.043 824.647 139.55L829.665 141.97C830.886 142.558 831.815 143.617 832.241 144.904L835.767 155.571C836.686 158.35 840.057 159.413 842.404 157.664V157.664C842.92 157.28 843.343 156.784 843.642 156.214L852.59 139.118C852.717 138.875 852.824 138.621 852.91 138.36L855.124 131.62C856.55 127.28 862.803 127.641 863.721 132.115V132.115C864.581 136.314 870.294 136.994 872.117 133.115L877.29 122.1C877.444 121.773 877.562 121.429 877.642 121.076L888.254 74.0706C888.769 71.7908 890.795 70.1718 893.132 70.1718H893.735C895.568 70.1718 897.253 69.1694 898.128 67.5593L902.997 58.6011C903.478 57.7161 904.404 57.1651 905.412 57.1651V57.1651C906.788 57.1651 907.953 58.1841 908.135 59.5488L917.124 126.707C917.665 130.748 922.595 132.439 925.556 129.638V129.638C928.276 127.066 932.787 128.252 933.829 131.846L939.237 150.509C940.14 153.628 943.932 154.817 946.455 152.772V152.772C947.263 152.117 948.272 151.759 949.313 151.759H950.998C953.232 151.759 955.195 150.277 955.807 148.128L959.987 133.443C960.209 132.663 960.647 131.961 961.249 131.418V131.418C963.737 129.178 967.718 130.5 968.37 133.784L971.737 150.738C971.871 151.411 972.142 152.05 972.533 152.614L974.967 156.121C976.785 158.742 980.559 159.013 982.733 156.679L983.735 155.603C986.557 152.575 991.625 154.09 992.322 158.169L994.464 170.709C994.594 171.466 994.895 172.183 995.347 172.805L1000.74 180.228C1002.18 182.219 1004.86 182.863 1007.05 181.747L1013.08 178.676C1014.22 178.096 1015.1 177.101 1015.52 175.896L1017.96 169.062C1018.76 166.796 1021.81 166.415 1023.15 168.412V168.412C1024.27 170.093 1026.73 170.149 1027.93 168.522L1037.96 154.966C1038.38 154.411 1038.67 153.776 1038.82 153.102L1042.37 137.511C1042.54 136.772 1042.87 136.08 1043.35 135.489L1048.47 129.117C1049.65 127.648 1051.86 127.563 1053.15 128.936V128.936C1054.64 130.528 1057.27 130.116 1058.21 128.142L1060.84 122.597C1061.15 121.945 1061.6 121.368 1062.15 120.905L1062.83 120.332C1065.51 118.09 1069.61 119.219 1070.76 122.518L1071.75 125.351C1072.45 127.358 1074.35 128.702 1076.47 128.702H1076.64C1078.41 128.702 1080.04 129.63 1080.94 131.144L1090.29 146.857C1090.79 147.697 1091.7 148.212 1092.68 148.212V148.212C1093.85 148.212 1094.9 148.95 1095.29 150.056L1100.33 164.225C1101.33 167.035 1104.55 168.35 1107.23 167.042L1109.28 166.045C1111.97 164.734 1115.19 166.059 1116.19 168.88L1121.27 183.323C1121.35 183.564 1121.42 183.81 1121.46 184.061L1124.16 198.456C1124.83 202.045 1129.47 203.098 1131.63 200.151V200.151C1131.87 199.817 1132.07 199.449 1132.2 199.058L1136.39 187.03C1137.08 185.027 1138.97 183.684 1141.09 183.684V183.684C1143.44 183.684 1145.47 182.041 1145.97 179.742L1153.89 142.612C1154.29 140.771 1156.42 139.916 1157.98 140.978V140.978C1159.4 141.95 1161.35 141.326 1161.95 139.711L1173.55 108.368C1173.78 107.741 1174.14 107.167 1174.6 106.68L1178.02 103.037C1178.85 102.151 1180.2 101.989 1181.22 102.652V102.652C1182.61 103.56 1184.49 102.882 1184.99 101.291L1190.51 83.4995C1191.08 81.6533 1193.61 81.4351 1194.49 83.1556V83.1556C1195.33 84.7938 1197.7 84.6959 1198.41 82.9941L1203.14 71.5192C1203.5 70.6392 1204.11 69.8811 1204.89 69.3339L1208.02 67.1353C1208.5 66.7974 1208.91 66.3774 1209.25 65.8946L1213.97 59.0933C1214.81 57.8855 1216.18 57.1651 1217.65 57.1651V57.1651C1219.32 57.1651 1220.84 56.2458 1221.62 54.7763L1224.71 48.923C1225.86 46.7473 1228.7 46.1401 1230.64 47.6545V47.6545C1232.03 48.7359 1233.96 48.773 1235.38 47.7456L1235.54 47.6344C1237.64 46.1209 1240.59 46.8456 1241.76 49.159L1243.21 52.0448C1244.06 53.7341 1245.78 54.8003 1247.67 54.8003H1248.65C1249.62 54.8003 1250.58 54.5137 1251.4 53.9759L1255.22 51.4563C1256.7 50.4853 1258.69 51.2481 1259.14 52.9554V52.9554C1259.63 54.851 1261.98 55.5211 1263.41 54.1744L1270.11 47.8352C1271.68 46.3509 1274.25 46.9083 1275.06 48.9094V48.9094C1276.16 51.614 1280.06 51.4015 1280.86 48.5934L1284.68 35.1636C1285.23 33.2537 1287.71 32.7724 1288.93 34.3409V34.3409C1289.96 35.6666 1291.99 35.5702 1292.89 34.153L1300.17 22.6796C1301.76 20.1761 1305.54 20.6625 1306.45 23.486V23.486C1307.35 26.3029 1311.13 26.7959 1312.72 24.3053L1317.42 16.9697C1317.67 16.5729 1317.87 16.1422 1318 15.6903L1321.29 4.58259C1321.92 2.45797 1323.87 1 1326.08 1H1327.9H1330.34C1332.5 1 1334.42 2.38733 1335.09 4.43967L1337.3 11.1751C1337.95 13.1489 1340.64 13.3982 1341.64 11.577V11.577C1342.51 10.0023 1344.74 9.92009 1345.72 11.427L1351.67 20.597C1352.59 22.0175 1354.17 22.8748 1355.86 22.8748H1356.15C1357.75 22.8748 1359.26 23.6417 1360.2 24.9375L1365.79 32.6364C1366.73 33.9322 1368.23 34.6991 1369.83 34.6991H1377.21C1377.93 34.6991 1378.59 34.2868 1378.91 33.6369V33.6369C1379.56 32.2997 1381.43 32.2044 1382.22 33.4685L1384.03 36.3921C1384.31 36.8352 1384.49 37.3303 1384.56 37.8465L1391.39 84.6402C1391.47 85.2373 1391.67 85.8138 1391.96 86.3416L1403.36 106.922C1403.54 107.252 1403.77 107.559 1404.02 107.837V107.837C1406.81 110.89 1411.9 109.218 1412.34 105.104L1413.77 91.6931C1414.04 89.2045 1416.14 87.3169 1418.64 87.3169V87.3169C1420.02 87.3169 1421.33 86.7365 1422.26 85.718L1426.16 81.4339C1427.56 79.8989 1430.02 80.047 1431.22 81.7387L1432.85 84.0172C1433.37 84.7576 1434.48 84.7471 1434.99 83.9968L1435.13 83.7912C1435.54 83.1844 1436.42 83.1373 1436.9 83.6961V83.6961C1437.23 84.0865 1437.79 84.199 1438.25 83.9688L1441 82.5872" stroke="url(#paint0_linear_4557_150733)"/>
<path d="M1 411L10.4619 397.923C12.844 394.631 17.95 395.405 19.25 399.255L20.1354 401.877C21.4311 405.714 26.5129 406.499 28.9062 403.232L32.7032 398.048C33.1062 397.498 33.3925 396.871 33.5442 396.206L43.56 352.316C44.2289 349.384 48.1439 348.791 49.6518 351.392L50.6492 353.113C51.8266 355.144 54.8902 354.644 55.3608 352.344V352.344C55.8667 349.871 59.2708 349.552 60.2267 351.888L62.7594 358.078C62.9868 358.634 63.321 359.139 63.7432 359.566L67.3832 363.247C68.1988 364.072 69.3106 364.536 70.4706 364.536V364.536C72.1401 364.536 73.6617 363.579 74.3845 362.074L80.3247 349.707C81.053 348.19 83.0365 347.804 84.2806 348.936V348.936C85.5419 350.084 87.556 349.669 88.2601 348.115L89.3417 345.729C90.7203 342.687 94.845 342.215 96.875 344.867L103.824 353.944C104.273 354.531 104.587 355.21 104.742 355.932L108.146 371.766C108.849 375.037 112.503 376.708 115.436 375.101L116.352 374.599C119.11 373.089 122.561 374.469 123.517 377.465L124.794 381.467C125.652 384.156 129.098 384.911 131.001 382.826V382.826C132.064 381.66 133.754 381.305 135.196 381.944L138.746 383.514C140.087 384.107 141.1 385.259 141.517 386.665L142.144 388.78C143.045 391.816 146.506 393.26 149.298 391.765L150.446 391.151C151.733 390.462 152.654 389.246 152.969 387.822L160.18 355.196C160.828 352.264 164.773 351.72 166.191 354.367L166.486 354.917C167.477 356.767 170.063 356.943 171.296 355.243V355.243C172.58 353.472 175.3 353.754 176.194 355.751L181.645 367.923C183.425 371.898 189.082 371.856 190.802 367.855L195.624 356.638C196.123 355.479 197.041 354.551 198.195 354.041L202.424 352.17C203.73 351.592 204.727 350.482 205.163 349.121L208.632 338.278C209.323 336.119 211.92 335.264 213.758 336.592V336.592C215.478 337.834 217.906 337.174 218.76 335.231L224.703 321.71C225.882 319.027 229.425 318.431 231.417 320.58V320.58C233.157 322.457 236.177 322.283 237.689 320.218L240.621 316.215C242.68 313.404 246.911 313.508 248.829 316.418L251.354 320.248C251.739 320.831 252.259 321.312 252.871 321.65V321.65C255.259 322.967 258.254 321.763 259.067 319.16L263.342 305.47C263.482 305.023 263.683 304.599 263.941 304.208L268.277 297.631C268.493 297.303 268.669 296.952 268.803 296.583L273.7 283.078C273.998 282.254 274.508 281.523 275.178 280.958L280.288 276.652C282.029 275.185 284.541 275.079 286.399 276.395L287.133 276.914C287.891 277.451 288.485 278.189 288.848 279.044L291.628 285.604C292.249 287.071 294.067 287.587 295.367 286.667V286.667C296.664 285.749 298.476 286.261 299.102 287.721L304.005 299.163C304.298 299.847 304.74 300.457 305.299 300.948L309.334 304.496C312.273 307.081 316.909 305.438 317.565 301.579L320.679 283.255C321.179 280.313 324.129 278.461 326.996 279.29L332.359 280.839C334.394 281.427 336.579 280.669 337.812 278.947L343.024 271.668C344.788 269.205 348.319 268.864 350.521 270.943L353.091 273.369C353.644 273.89 354.07 274.531 354.338 275.242L356.779 281.721C357.398 283.365 359.358 284.042 360.86 283.131V283.131C362.088 282.386 363.68 282.688 364.549 283.831L366.568 286.485C367.514 287.728 368.986 288.458 370.548 288.458H371.519C373.913 288.458 375.971 286.76 376.427 284.41L380.385 263.998C380.584 262.97 381.101 262.031 381.862 261.313L386.82 256.633C387.748 255.757 388.976 255.269 390.252 255.269H392.881C394.428 255.269 395.888 255.986 396.835 257.209L404.422 267.013V267.013C406.788 270.602 412.351 269.235 412.783 264.958L415.58 237.3C415.839 234.747 417.988 232.803 420.555 232.803H421.892C423.556 232.803 425.071 233.764 425.78 235.27V235.27C427.329 238.558 432.007 238.559 433.555 235.27V235.27C434.264 233.764 435.779 232.803 437.443 232.803H438.756C440.052 232.803 441.296 233.306 442.229 234.206L449.667 241.386C451.026 242.698 453.009 243.132 454.791 242.508L462.558 239.789C464.096 239.251 465.275 237.997 465.718 236.429L468.022 228.275C468.63 226.121 470.596 224.634 472.834 224.634H475.742C477.257 224.634 478.691 225.321 479.64 226.502L484.065 232.01C484.486 232.534 484.797 233.136 484.979 233.783L486.227 238.2C487.033 241.05 490.125 242.579 492.879 241.489L497.392 239.703C498.641 239.209 499.639 238.233 500.16 236.995L509.669 214.418C510.45 212.564 512.266 211.359 514.277 211.359H514.562C516.646 211.359 518.512 210.066 519.243 208.115L523.306 197.284C523.488 196.799 523.744 196.344 524.066 195.938L525.545 194.068C527.6 191.47 531.569 191.553 533.514 194.235L534.53 195.636C534.967 196.239 535.533 196.736 536.186 197.092L540.52 199.452C541.323 199.889 541.96 200.577 542.335 201.411V201.411C543.908 204.909 548.966 204.626 550.137 200.973L552.254 194.373C552.646 193.149 553.495 192.124 554.624 191.509L557.793 189.783C558.848 189.209 559.661 188.273 560.083 187.148L563.356 178.424C564.191 176.196 566.874 175.314 568.868 176.611V176.611C570.616 177.747 572.956 177.226 574.057 175.455L580.082 165.762C581.574 163.361 585.003 163.182 586.738 165.415V165.415C587.895 166.905 589.926 167.401 591.641 166.613L591.991 166.452C593.358 165.824 594.972 166.117 596.03 167.187V167.187C597.953 169.132 601.258 168.287 602.013 165.658L603.597 160.14C604.317 157.635 606.84 156.102 609.395 156.619L610.768 156.897C611.843 157.114 612.79 157.744 613.406 158.65V158.65C615.327 161.475 619.637 160.944 620.815 157.738L624.066 148.886C624.39 148.003 624.957 147.229 625.701 146.654L632.318 141.537C632.855 141.122 633.514 140.897 634.193 140.897V140.897C635.642 140.897 636.894 139.881 637.192 138.463L639.667 126.7C640.516 122.665 645.609 121.334 648.323 124.437L651.285 127.822C652.53 129.246 654.511 129.781 656.304 129.176V129.176C658.164 128.549 660.219 129.15 661.448 130.68L665.551 135.786C665.826 136.128 666.054 136.505 666.231 136.906L669.317 143.929C669.763 144.942 670.532 145.779 671.504 146.309L672.485 146.843C674.786 148.096 677.665 147.36 679.082 145.155L682.777 139.407C683.013 139.04 683.295 138.706 683.617 138.413L686.75 135.561C687.671 134.724 688.871 134.259 690.116 134.259H690.975C693.207 134.259 695.168 132.78 695.782 130.635L699.234 118.576C699.814 116.55 701.968 115.419 703.965 116.093V116.093C705.408 116.579 707.001 116.13 707.978 114.963L708.328 114.545C710.169 112.345 713.572 112.411 715.326 114.681L721.194 122.277C722.989 124.6 726.39 124.885 728.546 122.892L739.102 113.131C740.721 111.634 743.3 111.962 744.492 113.817V113.817C746.147 116.393 750.07 115.8 750.89 112.85L752.675 106.433C753.079 104.979 754.119 103.786 755.504 103.185L757.244 102.431C759.137 101.611 761.338 102.037 762.788 103.503L764.848 105.586C765.235 105.977 765.554 106.429 765.794 106.924L776.662 129.382C776.915 129.906 777.075 130.471 777.135 131.05L782.531 183.635C782.576 184.074 782.679 184.506 782.838 184.919L788.076 198.539C788.787 200.389 791.228 200.785 792.488 199.256V199.256C793.595 197.912 795.687 198.023 796.646 199.477L799.708 204.122C800.395 205.164 801.447 205.912 802.657 206.218L812.289 208.653C813.783 209.031 815.324 208.226 815.867 206.783V206.783C816.881 204.091 820.725 204.194 821.592 206.937L822.432 209.59C822.787 210.711 823.618 211.62 824.704 212.072L829.594 214.108C830.859 214.635 831.852 215.657 832.342 216.936L835.646 225.568C836.671 228.246 839.899 229.303 842.31 227.752V227.752C842.888 227.38 843.373 226.882 843.729 226.294L852.545 211.748C852.702 211.489 852.835 211.216 852.943 210.933L855.182 205.047C856.748 200.929 862.698 201.317 863.715 205.604V205.604C864.663 209.597 870.037 210.314 871.997 206.709L877.231 197.086C877.424 196.731 877.573 196.354 877.676 195.962L888.158 155.865C888.733 153.665 890.721 152.13 892.996 152.13H893.947C895.666 152.13 897.264 151.247 898.179 149.793L902.934 142.237C903.459 141.403 904.375 140.897 905.36 140.897V140.897C906.773 140.897 907.976 141.927 908.192 143.324L917.081 200.683C917.674 204.503 922.191 206.235 925.185 203.79L925.945 203.17C928.652 200.958 932.736 202.137 933.848 205.452L939.078 221.039C940.108 224.109 943.8 225.325 946.452 223.468V223.468C947.267 222.898 948.237 222.592 949.232 222.592H951.156C953.315 222.592 955.229 221.207 955.905 219.157L959.903 207.027C960.179 206.189 960.699 205.453 961.395 204.911V204.911C963.957 202.918 967.723 204.258 968.451 207.422L971.683 221.474C971.852 222.21 972.185 222.897 972.658 223.485L975.142 226.578C976.959 228.839 980.312 229.085 982.439 227.113L984.055 225.615C986.924 222.955 991.599 224.474 992.359 228.312L994.411 238.69C994.575 239.518 994.945 240.291 995.488 240.937L1000.83 247.296C1002.26 248.996 1004.64 249.549 1006.67 248.656L1013.01 245.868C1014.2 245.348 1015.13 244.39 1015.62 243.196L1017.89 237.696C1018.79 235.516 1021.71 235.12 1023.15 236.982V236.982C1024.34 238.516 1026.64 238.571 1027.91 237.096L1037.84 225.504C1038.33 224.932 1038.69 224.255 1038.88 223.526L1042.31 210.529C1042.52 209.733 1042.92 209.001 1043.48 208.398L1048.45 203.055C1049.7 201.717 1051.79 201.635 1053.14 202.872V202.872C1054.73 204.332 1057.26 203.916 1058.3 202.026L1060.77 197.538C1061.12 196.888 1061.62 196.326 1062.22 195.892L1063.21 195.18C1065.84 193.28 1069.55 194.35 1070.77 197.358L1071.66 199.554C1072.42 201.442 1074.26 202.678 1076.29 202.678H1076.86C1078.5 202.678 1080.04 203.487 1080.98 204.841L1090.22 218.249C1090.77 219.05 1091.68 219.528 1092.65 219.528V219.528C1093.85 219.528 1094.93 220.251 1095.39 221.359L1100.29 233.249C1101.34 235.817 1104.29 237.031 1106.85 235.952L1109.66 234.769C1112.23 233.687 1115.18 234.911 1116.23 237.491L1121.23 249.762C1121.34 250.029 1121.42 250.305 1121.48 250.587L1124.1 262.616C1124.85 266.085 1129.25 267.185 1131.55 264.477V264.477C1131.84 264.128 1132.08 263.733 1132.25 263.308L1136.29 253.295C1137.05 251.403 1138.89 250.164 1140.93 250.164H1141.21C1143.51 250.164 1145.51 248.596 1146.06 246.364L1153.8 215.056C1154.26 213.213 1156.36 212.329 1158 213.294V213.294C1159.47 214.163 1161.37 213.54 1162.05 211.968L1173.48 185.283C1173.76 184.633 1174.17 184.05 1174.69 183.571L1178 180.533C1178.87 179.733 1180.15 179.583 1181.19 180.162V180.162C1182.66 180.99 1184.52 180.295 1185.09 178.705L1190.48 163.73C1191.12 161.956 1193.53 161.726 1194.49 163.347V163.347C1195.4 164.88 1197.65 164.778 1198.42 163.17L1203.05 153.476C1203.47 152.598 1204.14 151.861 1204.97 151.356L1207.99 149.523C1208.49 149.221 1208.93 148.834 1209.29 148.38L1213.85 142.712C1214.77 141.564 1216.16 140.897 1217.63 140.897V140.897C1219.32 140.897 1220.89 140.018 1221.78 138.576L1224.56 134.021C1225.85 131.925 1228.62 131.321 1230.66 132.696V132.696C1232.07 133.647 1233.91 133.68 1235.35 132.781L1235.51 132.682C1237.72 131.309 1240.62 132.031 1241.93 134.277L1243.14 136.369C1244.04 137.908 1245.69 138.854 1247.47 138.854H1248.82C1249.69 138.854 1250.54 138.629 1251.29 138.201L1255.47 135.824C1256.88 135.022 1258.67 135.735 1259.14 137.287V137.287C1259.67 139.008 1261.77 139.648 1263.17 138.51L1270.27 132.708C1271.84 131.421 1274.21 131.957 1275.08 133.798V133.798C1276.28 136.355 1279.99 136.129 1280.88 133.444L1284.61 122.109C1285.23 120.243 1287.63 119.739 1288.94 121.2V121.2C1290.03 122.405 1291.94 122.311 1292.9 121.004L1300.29 110.947C1301.95 108.681 1305.47 109.174 1306.45 111.81V111.81C1307.42 114.439 1310.93 114.938 1312.6 112.686L1317.34 106.29C1317.65 105.877 1317.89 105.418 1318.05 104.931L1321.19 95.7714C1321.88 93.7492 1323.78 92.3906 1325.92 92.3906H1327.9H1330.51C1332.59 92.3906 1334.45 93.6731 1335.19 95.6132L1337.26 101.075C1337.98 102.97 1340.56 103.232 1341.64 101.521V101.521C1342.57 100.069 1344.66 99.9871 1345.69 101.363L1351.65 109.286C1352.59 110.543 1354.07 111.283 1355.64 111.283H1356.37C1357.85 111.283 1359.25 111.935 1360.2 113.065L1365.78 119.712C1366.73 120.842 1368.14 121.494 1369.61 121.494H1377.28C1377.97 121.494 1378.6 121.123 1378.94 120.523V120.523C1379.63 119.308 1381.34 119.214 1382.16 120.347L1383.93 122.811C1384.27 123.288 1384.5 123.838 1384.6 124.419L1391.35 164.398C1391.46 165.063 1391.71 165.698 1392.07 166.265L1403.31 183.785C1403.53 184.125 1403.79 184.437 1404.08 184.715V184.715C1407.04 187.507 1411.91 185.751 1412.41 181.714L1413.7 171.324C1414.01 168.819 1416.14 166.937 1418.66 166.937H1418.81C1420.09 166.937 1421.32 166.446 1422.25 165.566L1426.21 161.813C1427.65 160.442 1429.96 160.584 1431.22 162.121L1432.85 164.092C1433.41 164.767 1434.44 164.757 1434.99 164.07L1435.12 163.905C1435.56 163.345 1436.39 163.299 1436.89 163.806V163.806C1437.24 164.155 1437.76 164.256 1438.21 164.061L1441 162.852" stroke="url(#paint1_linear_4557_150733)"/>
<defs>
<linearGradient id="paint0_linear_4557_150733" x1="1" y1="185.458" x2="1441" y2="185.458" gradientUnits="userSpaceOnUse">
<stop stop-color="#979797"/>
<stop offset="0.241" stop-color="#D9D9D9"/>
<stop offset="0.811" stop-color="#D9D9D9"/>
<stop offset="1" stop-color="#979797"/>
</linearGradient>
<linearGradient id="paint1_linear_4557_150733" x1="1" y1="251.695" x2="1441" y2="251.695" gradientUnits="userSpaceOnUse">
<stop stop-color="#48559B"/>
<stop offset="0.24375" stop-color="#DBE1FF"/>
<stop offset="0.778472" stop-color="#DBE1FF"/>
<stop offset="1" stop-color="#48559B"/>
</linearGradient>
</defs>
</svg>
